<svg width="18" height="21" viewBox="0 0 18 21" fill="none" xmlns="http://www.w3.org/2000/svg">
<path d="M5.80019 0.599609C4.91619 0.599609 4.2002 1.31561 4.2002 2.19961V14.9996C4.2002 15.8836 4.91619 16.5996 5.80019 16.5996H16.2002C17.0842 16.5996 17.8002 15.8836 17.8002 14.9996V5.79961C17.8002 5.58761 17.7162 5.38438 17.5658 5.23398L13.1658 0.833984C13.0154 0.683584 12.8122 0.599609 12.6002 0.599609H5.80019ZM12.2002 2.12305L16.2768 6.19961H13.0002C12.5586 6.19961 12.2002 5.84121 12.2002 5.39961V2.12305ZM1.8002 4.59961C0.916195 4.59961 0.200195 5.31561 0.200195 6.19961V18.9996C0.200195 19.8836 0.916195 20.5996 1.8002 20.5996H12.2002C13.0842 20.5996 13.8002 19.8836 13.8002 18.9996V18.1996H5.80019C4.03539 18.1996 2.6002 16.7644 2.6002 14.9996V4.59961H1.8002Z" fill="#7E8494"/>
</svg>
