<svg width="20" height="19" viewBox="0 0 20 19" fill="none" xmlns="http://www.w3.org/2000/svg">
<path d="M19.1431 3.857H6.57171M4.28599 3.857H0.857422M19.1431 15.2856H6.57171M4.28599 15.2856H0.857422M13.4289 9.57129H0.857422M19.1431 9.57129H15.7146M5.42885 1.57129C5.73196 1.57129 6.02265 1.6917 6.23697 1.90602C6.4513 2.12035 6.57171 2.41104 6.57171 2.71415V4.99986C6.57171 5.30296 6.4513 5.59365 6.23697 5.80798C6.02265 6.02231 5.73196 6.14272 5.42885 6.14272C5.12575 6.14272 4.83506 6.02231 4.62073 5.80798C4.4064 5.59365 4.28599 5.30296 4.28599 4.99986V2.71415C4.28599 2.41104 4.4064 2.12035 4.62073 1.90602C4.83506 1.6917 5.12575 1.57129 5.42885 1.57129ZM5.42885 12.9999C5.73196 12.9999 6.02265 13.1203 6.23697 13.3346C6.4513 13.5489 6.57171 13.8396 6.57171 14.1427V16.4284C6.57171 16.7315 6.4513 17.0222 6.23697 17.2366C6.02265 17.4509 5.73196 17.5713 5.42885 17.5713C5.12575 17.5713 4.83506 17.4509 4.62073 17.2366C4.4064 17.0222 4.28599 16.7315 4.28599 16.4284V14.1427C4.28599 13.8396 4.4064 13.5489 4.62073 13.3346C4.83506 13.1203 5.12575 12.9999 5.42885 12.9999ZM14.5717 7.28557C14.8748 7.28557 15.1655 7.40598 15.3798 7.62031C15.5942 7.83464 15.7146 8.12533 15.7146 8.42843V10.7141C15.7146 11.0172 15.5942 11.3079 15.3798 11.5223C15.1655 11.7366 14.8748 11.857 14.5717 11.857C14.2686 11.857 13.9779 11.7366 13.7636 11.5223C13.5493 11.3079 13.4289 11.0172 13.4289 10.7141V8.42843C13.4289 8.12533 13.5493 7.83464 13.7636 7.62031C13.9779 7.40598 14.2686 7.28557 14.5717 7.28557Z" stroke="#262626" stroke-width="1.2" stroke-linecap="round" stroke-linejoin="round"/>
</svg>
