<svg width="19" height="22" viewBox="0 0 19 22" fill="none" xmlns="http://www.w3.org/2000/svg">
<path d="M1.47738 8.84C1.5176 8.33881 1.74513 7.87115 2.11465 7.53017C2.48417 7.18918 2.96857 6.9999 3.47138 7H15.5294C16.0322 6.9999 16.5166 7.18918 16.8861 7.53017C17.2556 7.87115 17.4832 8.33881 17.5234 8.84L18.3264 18.84C18.3485 19.1152 18.3133 19.392 18.2232 19.6529C18.1331 19.9139 17.9899 20.1533 17.8027 20.3563C17.6155 20.5592 17.3883 20.7211 17.1354 20.8319C16.8825 20.9427 16.6095 20.9999 16.3334 21H2.66738C2.3913 20.9999 2.11823 20.9427 1.86536 20.8319C1.61249 20.7211 1.38529 20.5592 1.19808 20.3563C1.01086 20.1533 0.86768 19.9139 0.77755 19.6529C0.687421 19.392 0.652293 19.1152 0.674379 18.84L1.47738 8.84V8.84Z" stroke="#181818" stroke-linecap="round" stroke-linejoin="round"/>
<path d="M13.5 10V5C13.5 3.93913 13.0786 2.92172 12.3284 2.17157C11.5783 1.42143 10.5609 1 9.5 1C8.43913 1 7.42172 1.42143 6.67157 2.17157C5.92143 2.92172 5.5 3.93913 5.5 5V10" stroke="#181818" stroke-linecap="round" stroke-linejoin="round"/>
</svg>
