<svg width="25" height="24" viewBox="0 0 25 24" fill="none" xmlns="http://www.w3.org/2000/svg">
<path d="M13.3353 11.9998C14.2465 11.9998 15.0817 11.7758 15.841 11.3278C16.6004 10.8798 17.2038 10.2758 17.6514 9.51581C18.099 8.75581 18.3228 7.91981 18.3228 7.00781C18.3228 6.09581 18.099 5.25981 17.6514 4.49981C17.2038 3.73981 16.6004 3.13581 15.841 2.68781C15.0817 2.23981 14.2465 2.01581 13.3353 2.01581C12.4242 2.01581 11.5889 2.23981 10.8296 2.68781C10.0703 3.13581 9.46684 3.73981 9.01925 4.49981C8.57166 5.25981 8.34786 6.09581 8.34786 7.00781C8.34786 7.91981 8.57166 8.75581 9.01925 9.51581C9.46684 10.2758 10.0703 10.8798 10.8296 11.3278C11.5889 11.7758 12.4242 11.9998 13.3353 11.9998ZM13.3353 2.99981C14.0547 2.99981 14.7221 3.17981 15.3375 3.53981C15.9529 3.89981 16.4405 4.38781 16.8002 5.00381C17.1599 5.61981 17.3397 6.28781 17.3397 7.00781C17.3397 7.72781 17.1599 8.39581 16.8002 9.01181C16.4405 9.62781 15.9529 10.1158 15.3375 10.4758C14.7221 10.8358 14.0547 11.0158 13.3353 11.0158C12.616 11.0158 11.9486 10.8358 11.3331 10.4758C10.7177 10.1158 10.2301 9.62781 9.87048 9.01181C9.5108 8.39581 9.33097 7.72781 9.33097 7.00781C9.33097 6.28781 9.5108 5.61981 9.87048 5.00381C10.2301 4.38781 10.7177 3.89981 11.3331 3.53981C11.9486 3.17981 12.616 2.99981 13.3353 2.99981ZM13.3353 13.9918C11.8327 13.9918 10.4739 14.3198 9.25903 14.9758C8.04414 15.6318 7.093 16.5198 6.40563 17.6398C5.70227 18.8078 5.35059 20.0958 5.35059 21.5038V22.0078H21.3201V21.5038C21.3201 20.0958 20.9684 18.8078 20.265 17.6398C19.5777 16.5198 18.6265 15.6318 17.4116 14.9758C16.1967 14.3198 14.838 13.9918 13.3353 13.9918ZM6.33369 20.9998C6.41362 19.8638 6.7693 18.8398 7.40072 17.9278C8.03215 17.0158 8.86339 16.2998 9.89446 15.7798C10.9255 15.2598 12.0725 14.9998 13.3353 14.9998C14.5982 14.9998 15.7451 15.2598 16.7762 15.7798C17.8073 16.2998 18.6345 17.0158 19.2579 17.9278C19.8814 18.8398 20.241 19.8638 20.337 20.9998H6.33369Z" fill="black"/>
</svg>
