<svg width="20" height="21" viewBox="0 0 20 21" fill="none" xmlns="http://www.w3.org/2000/svg">
<path d="M8.80623 0.49707C8.28923 0.49707 7.79528 0.701383 7.42928 1.06738L6.99959 1.49707H1.99959C1.86708 1.4952 1.73552 1.51968 1.61255 1.56909C1.48958 1.6185 1.37766 1.69187 1.28329 1.78491C1.18892 1.87795 1.11399 1.98883 1.06284 2.11108C1.01169 2.23334 0.985352 2.36454 0.985352 2.49707C0.985352 2.6296 1.01169 2.7608 1.06284 2.88306C1.11399 3.00531 1.18892 3.11619 1.28329 3.20923C1.37766 3.30227 1.48958 3.37564 1.61255 3.42505C1.73552 3.47446 1.86708 3.49894 1.99959 3.49707H17.9996C18.1321 3.49894 18.2637 3.47446 18.3866 3.42505C18.5096 3.37564 18.6215 3.30227 18.7159 3.20923C18.8103 3.11619 18.8852 3.00531 18.9363 2.88306C18.9875 2.7608 19.0138 2.6296 19.0138 2.49707C19.0138 2.36454 18.9875 2.23334 18.9363 2.11108C18.8852 1.98883 18.8103 1.87795 18.7159 1.78491C18.6215 1.69187 18.5096 1.6185 18.3866 1.56909C18.2637 1.51968 18.1321 1.4952 17.9996 1.49707H12.9996L12.5699 1.06738C12.2049 0.701383 11.71 0.49707 11.193 0.49707H8.80623ZM2.36483 5.49707L3.89217 18.7607C4.02417 19.7507 4.87659 20.4971 5.87459 20.4971H14.1226C15.1206 20.4971 15.974 19.7519 16.107 18.7529L17.6344 5.49707H2.36483Z" fill="#7E8494"/>
</svg>
